PathFileType	4	(X/Y/Z)	19_2_29_p1_0-324_filt_butterworth.trc
DataRate	CameraRate	NumFrames	NumMarkers	Units	OrigDataRate	OrigDataStartFrame	OrigNumFrames
55.0	55.0	6	27	m	55.0	0	324
Frame#	Time	RHip			RKnee			RAnkle			RBigToe			RSmallToe			RHeel			LHip			LKnee			LAnkle			LBigToe			LSmallToe			LHeel			Neck			Head			Nose			RShoulder			RElbow			RWrist			RThumb			RIndex			RPinky			LShoulder			LElbow			LWrist			LThumb			LIndex			LPinky			
		X1	Y1	Z1	X2	Y2	Z2	X3	Y3	Z3	X4	Y4	Z4	X5	Y5	Z5	X6	Y6	Z6	X7	Y7	Z7	X8	Y8	Z8	X9	Y9	Z9	X10	Y10	Z10	X11	Y11	Z11	X12	Y12	Z12	X13	Y13	Z13	X14	Y14	Z14	X15	Y15	Z15	X16	Y16	Z16	X17	Y17	Z17	X18	Y18	Z18	X19	Y19	Z19	X20	Y20	Z20	X21	Y21	Z21	X22	Y22	Z22	X23	Y23	Z23	X24	Y24	Z24	X25	Y25	Z25	X26	Y26	Z26	X27	Y27	Z27	
0	0.0	0.29132402647731154	0.5475559829352463	0.89620165811833	0.2761347323788674	0.5312878867240316	1.331914929193678	0.2582911354874555	0.5485467144016147	1.7403113507609143	0.26743902505419626	0.38875850255369504	1.7406098685921316	0.32129771373589855	0.42150164732101497	1.7493390683795265	0.23678994311471727	0.6054946932153968	1.8115731570267122	0.07312435872003321	0.5312464524837199	0.9214223191197064	0.07174117338118685	0.5304366862881895	1.333209516773346	0.07960921553710205	0.524501562713601	1.756550300313551	0.1165448584392599	0.3537844921762531	1.7179573789166636	0.0745480047814064	0.35592928169876	1.7142273684005347	0.08260627602937794	0.5583323754269027	1.7988023350127182	0.1770755409058682	0.5526542482120368	0.36966909384203983	0.18345716467913697	0.4497506156543826	0.11359138238745925	0.17401221307164988	0.3891104754935954	0.246413074422448	0.3290923356629002	0.5269325737070025	0.4461397758518716	0.3815077409075696	0.5338456847122893	0.7018808708135409	0.27991379468566957	0.3515508328508109	0.8807833994637461	0.19151616788514184	0.3102342721523046	0.9220666146427465	0.1819712633462903	0.29081359145943947	0.9614723784833861	0.19547165952318002	0.33997186399011764	0.9807246596733011	0.04149278784367332	0.5484214170443076	0.44752056093068987	-0.018498378994831893	0.5005594404312451	0.7143479565580869	0.10006560311143867	0.3560088972872091	0.8776844128046664	0.18216409831231012	0.34280773075480603	0.9039631681756546	0.1851225265978127	0.31376549415443905	0.9618334458237559	0.1800599238212804	0.32428962865092315	0.9710383554536193
1	0.0181818181818181	0.2919836982492361	0.5464047619660676	0.9003599493922756	0.2805181586608712	0.544227570251821	1.3407871531467608	0.2614210430132208	0.5389399376026929	1.7367899509708358	0.27240339306772865	0.3931086111971598	1.7422353573357887	0.3228077697105654	0.41876310902539093	1.7471910395394947	0.23636620956473803	0.5992747181167171	1.8102895262185223	0.07766866240120476	0.522322201464321	0.9144026858646892	0.07236371745269743	0.5316767224989559	1.330764699647853	0.07968907011179166	0.5243675564327985	1.7563773465266506	0.1208177280637984	0.36405879036820327	1.7257529138022156	0.07489779788596644	0.362472232130467	1.7199905280539656	0.08685780146892202	0.5482740489446295	1.792230200008927	0.1770700228838593	0.5526883905873928	0.3695059782809116	0.18349261598774558	0.44966018106219174	0.11363843860485034	0.17395983099040904	0.38901656819500147	0.2463949837898337	0.33048989349878477	0.5272784814368734	0.44518644619372216	0.3815328100492256	0.5343135287805258	0.6996698389240613	0.28028302274939393	0.352551431849561	0.87798207218226	0.19185913099106927	0.31166170706780366	0.917608666484772	0.18282861544743578	0.29736729626735886	0.9626327604704927	0.19502376209633407	0.3391570798047619	0.9776835878990742	0.04161645829903265	0.5483908545702733	0.44746562412596325	-0.016781877326343668	0.4966917941031874	0.7130881668846486	0.10019275786217213	0.3555519752177786	0.8778515070818963	0.1853356066113231	0.33952586008375657	0.9006401366644593	0.18445857288480294	0.31884233125752814	0.9600392670873124	0.18064233981397534	0.3277997790902332	0.9724818819837652
2	0.0363636363636363	0.2922714607948695	0.5457793200184703	0.9029631374288067	0.28278254962242433	0.5509172118869369	1.3459776416975082	0.2632472519825864	0.5336299815742467	1.7348553999065521	0.27430863125971466	0.39909362571337464	1.7446312962217623	0.32285805310867355	0.41956120508870554	1.747668206704771	0.23639123557346853	0.59648080301071	1.8110241623224956	0.08017565904089122	0.5175739025231049	0.9125061717306057	0.07270308388721458	0.5328112376980461	1.3296323584990069	0.0797424622140701	0.5242990242291545	1.7563336909489706	0.12215704804442337	0.36899076561940525	1.7295369387408217	0.07450190933806881	0.36962281318155926	1.726381300711034	0.08921115499521884	0.5426457463136554	1.788575442303096	0.17709306925032647	0.5527912552245359	0.3698112391924688	0.18350972252446568	0.4496071926470147	0.11366293490535476	0.1739305833982109	0.3889716396445319	0.24637836410165967	0.33146406737437195	0.5275241533829196	0.44527187965237247	0.38156182508560454	0.5345708028646806	0.6987260223086021	0.28005452898960376	0.35294521460438333	0.8747100471906917	0.19190586148089772	0.31182456710823714	0.9100907828736988	0.18296298076321266	0.30092391117997036	0.9625291718628504	0.19478882456829053	0.3386799431204289	0.9759300527229481	0.04166933314000362	0.5483540591812707	0.4474239329786573	-0.016845338694390102	0.4964451450845674	0.7130376527057832	0.10006138745829	0.35557518804440913	0.8758422467972578	0.18693688086644672	0.33456169581709677	0.8960930650859833	0.18412911166051604	0.319708755661013	0.9564230000525937	0.1805726309848642	0.3283136190488535	0.9722208212344318
3	0.0545454545454545	0.2921389316431158	0.5456136327212863	0.9051935996789015	0.2826556085882451	0.5505156225419825	1.3473987077210088	0.2635427915915506	0.5326341996787874	1.7345344270223568	0.2731028687148989	0.40401930877510484	1.7468331877726397	0.32196739987871387	0.4221892475815552	1.7495520105074913	0.2368745952663911	0.5967508608510054	1.8133468181998733	0.08060193858980545	0.5166654587547118	0.9158573072524756	0.07277732724131464	0.5335606975638084	1.3295714592921934	0.07975111799355478	0.5242604832178096	1.75635494031726	0.12078465572783974	0.36873497013189455	1.7291365746972716	0.07332901397367671	0.37425377979707064	1.7307446121266181	0.08966531178889775	0.5414600046917712	1.7878522139480955	0.17716641013707324	0.5530230528816502	0.37088172814670795	0.18348745100305597	0.4495866104054616	0.11366543009384764	0.17392694049761936	0.3889779160521437	0.24636974188223704	0.3319565574073644	0.5279581376321758	0.4460416270965629	0.38158858437487325	0.5345341305762948	0.6995492793359738	0.2788966375761741	0.35260858320248145	0.8715861189517832	0.1916359542591371	0.3103983153854636	0.9019895146040291	0.18266440743652296	0.3014440151744172	0.9616058588029568	0.1948134926086184	0.3385257096902899	0.9754779843793099	0.04166339786972505	0.5483380802496126	0.44739202542542267	-0.017990778244004517	0.49866065698742534	0.7137724730450362	0.09979491270465993	0.35625999745311177	0.8725437385778032	0.18662366847062403	0.3290430881422176	0.8922520400697062	0.18381034473318758	0.31741344485719414	0.9516425608316579	0.1800363891499139	0.32683115238176763	0.9702395252743187
4	0.0727272727272727	0.2918498680076157	0.5454903867571064	0.9095823287497464	0.2815268461798702	0.547415497597207	1.3474779621951487	0.2625564257324977	0.5334053132052508	1.7349873811485543	0.27115052911566057	0.40539073708723905	1.7474704785392945	0.3213244480784263	0.4238228641060886	1.7506825775408394	0.23712231335412895	0.5959585993876816	1.8142778716598946	0.08025260423414504	0.5167996656481098	0.9215802363343488	0.07278941265528674	0.5338345762383707	1.3298045355189385	0.07972760803785833	0.5242086907346124	1.7563515838939052	0.11899802023786223	0.3669550691324328	1.7273827373743154	0.07180264433855822	0.3741849938603993	1.7311963424936379	0.08937188456429233	0.542041256261701	1.788299766298193	0.17726846948963176	0.553323958092621	0.37236077179922666	0.1834377324493604	0.4495826318747549	0.11365953898584027	0.1739330068715076	0.38900259733665454	0.24637054779457135	0.3317127165952667	0.5285617940438134	0.4466368485340759	0.3815983021142196	0.5343466665842108	0.7010826032241648	0.27721768311426453	0.3519766873008743	0.8703976641254668	0.19138146228034536	0.3090839078899246	0.8983382595181837	0.18256363860128438	0.30072396281257674	0.9608936469029351	0.19486171619519319	0.33884689158771975	0.9757262534869819	0.04164664048314152	0.5483280854846037	0.4473723083052213	-0.0187835714268934	0.500547088978543	0.7143397937164719	0.0996445710030205	0.35737778053544117	0.8703311685808193	0.18540525894227078	0.3250334358859114	0.890782089365333	0.18311546665691514	0.3143440850793958	0.9474026366317615	0.1795610661497915	0.32586504568616304	0.9675277821148667
5	0.0909090909090909	0.2916988182308997	0.5452207602050756	0.9166194517460242	0.2806940135540249	0.5455229520664512	1.3476874414139288	0.2606848374417716	0.5341910561884082	1.7356305333377264	0.27010568493420006	0.40433509509084975	1.746349673076037	0.32119541919254846	0.42440492950141684	1.750924150500904	0.23652581054898345	0.5922768774456185	1.8118534598543365	0.08008272249041841	0.5164437673555532	0.9272156875359621	0.07285375602283087	0.5337490706416583	1.3303830260363978	0.0797035451233188	0.5241528371943497	1.756319028991969	0.11819120817151556	0.36597327731102836	1.7263800343284874	0.07043711002104551	0.3718270095589532	1.729622477862461	0.08911903540789862	0.5425533576517814	1.7886919857015435	0.17734263843592607	0.5535351541847151	0.3734434945460102	0.18347554693700935	0.4496318100925775	0.1136542098320626	0.17393727976746243	0.3890183796004988	0.24637376766689728	0.33074498794455376	0.5287241333550075	0.44679545681726496	0.3815843673054381	0.53415433091606	0.7020282038183967	0.27588949926067374	0.3515630653518781	0.8722026255572967	0.1913310175338173	0.309729186176187	0.9004387805757095	0.18272426693473937	0.30033590520092135	0.9606911058307643	0.19438547093020786	0.3404874371028811	0.9765833611709615	0.04161915506040667	0.5482460426668125	0.44737073577672143	-0.018938987415956336	0.5012428958779438	0.7145224481877115	0.0995813418190192	0.35837785441265907	0.869953455366876	0.1844710127274703	0.3237916299978601	0.8907955236829005	0.1823379416650897	0.3109236406084458	0.9445850579927271	0.17947445930695483	0.3268199691491251	0.9651354728074143
